<svg xmlns="http://www.w3.org/2000/svg" width="144" height="53.3" viewBox="0 0 144 53.3"><path id="logo" d="M11.1,53.3l8.1-22.1h7.9l-6,16.5H34.3l-2.1,5.6ZM54.6,31.2H64.7L67,43.6l4.6-12.4h7.9L71.4,53.3h-10L59,40.9,54.6,53.3h-8Zm50.9,0a7.7,7.7,0,0,1-1,1.5,13.3,13.3,0,0,1-1.4,1.9l-1.5,1.6a2.4,2.4,0,0,1-1.1.6H87.7l-2.4,6.6,4-3.9h9.6l-6,5.7H84.7l-.9,2.5H99.7l-.2.3a2.1,2.1,0,0,1-.4.6l-.3.5-.2.3-1,1.2-1.3,1.2-1.1,1.1-.5.4H73.8l8-22.1Zm14,15.1V46a2,2,0,0,0-.1-.7.5.5,0,0,0-.5-.3h-8.3a4,4,0,0,1-2.2-.6,4.4,4.4,0,0,1-1.7-1.6,5.6,5.6,0,0,1-1.1-2,6,6,0,0,1-.4-2.2,5.6,5.6,0,0,1,.6-2.3,7.9,7.9,0,0,1,1.5-2.4,8.9,8.9,0,0,1,2-1.9,4.6,4.6,0,0,1,2.4-.8h21.2l-2.2,2.9L128,36.9H114.2c-.3,0-.5.2-.7.6a1.9,1.9,0,0,0-.4,1v.2l.2.2.2.2.5.3.4.2h7.9a4.4,4.4,0,0,1,2.3.6,7.5,7.5,0,0,1,1.5,1.6A8.5,8.5,0,0,1,127,44a7.5,7.5,0,0,1,.3,2v.3a6.8,6.8,0,0,1-.5,2.3,10.5,10.5,0,0,1-1.3,2.3,10.5,10.5,0,0,1-1.9,1.7,4.4,4.4,0,0,1-2.2.7H100.2a9.9,9.9,0,0,1,.9-1.4l1.4-1.8,1.3-1.7c.4-.5.7-.7.8-.7h14.1c.4,0,.7-.1.7-.4a1.9,1.9,0,0,0,.1-.8Zm-73.1-.5,5.2-14.6H43.7l-8,22.1h7.9l2.8-7.5ZM10.6,0H23.9L27,16.4,33,0H43.5L32.9,29.1H19.6L16.5,12.8,10.6,29.1H0ZM76.1,19.5a21.9,21.9,0,0,1-4.1,5,24,24,0,0,1-5.5,3.4,17.6,17.6,0,0,1-6.3,1.2H54.7a24.8,24.8,0,0,1-5.6-.5A15,15,0,0,1,44.6,27a8.5,8.5,0,0,1-2.9-3.3,10.7,10.7,0,0,1-1.1-5.1,5.7,5.7,0,0,1,.1-1.3c0-.5.1-1,.1-1.5a16.6,16.6,0,0,1,2.1-6,21.1,21.1,0,0,1,3.9-5A22.6,22.6,0,0,1,52,1.3,13.3,13.3,0,0,1,57.8,0H65c4.5,0,7.8.8,10.1,2.3s3.4,4,3.4,7.5a23.8,23.8,0,0,1-.3,3.6A17,17,0,0,1,76.1,19.5Zm-25-4.1v.3a5.2,5.2,0,0,0,.4,2.1,11.4,11.4,0,0,0,1,1.9,7.5,7.5,0,0,0,1.6,1.5,4.1,4.1,0,0,0,1.9.5h3.6a2.9,2.9,0,0,0,1.5-.5L63.3,20l2-1.7a7.7,7.7,0,0,0,1.5-1.9,2.2,2.2,0,0,0,.6-1.2l.3-.6a1.2,1.2,0,0,1,.1-.5v-.9a2.8,2.8,0,0,0,.1-.9,11,11,0,0,0-.2-1.8,4.4,4.4,0,0,0-.6-1.6,5.3,5.3,0,0,0-1.4-1.1,6.7,6.7,0,0,0-2.2-.4H59a4.9,4.9,0,0,0-1.9.5l-2,1.2a15.3,15.3,0,0,0-1.8,1.8,8.5,8.5,0,0,0-1.4,1.9,6.1,6.1,0,0,1-.5,1.2,4.4,4.4,0,0,0-.2,1C51.1,15,51.1,15.2,51.1,15.4ZM107.7,0H119L99.5,25.7l-.7.9-1.1,1.1-1.2,1a1.6,1.6,0,0,1-1,.4h-9a1.4,1.4,0,0,1-1.1-.6,10.2,10.2,0,0,1-.8-1.5,9.5,9.5,0,0,1-.5-1.8c-.2-.6-.3-1.2-.4-1.6L80.3,0h9.6l2.6,19.6Zm26.5,29.1-1.1-6.2-.8,1.3-1.6,2c-.5.7-1.1,1.3-1.6,1.9a4,4,0,0,1-1.3,1H104.6a1.6,1.6,0,0,0,.1-.4h0L124.5,3.3l.6-.9a11.4,11.4,0,0,0,1.1-1.1l1.2-.9a1.6,1.6,0,0,1,.9-.4h9.3a1.4,1.4,0,0,1,1,.6,5.3,5.3,0,0,1,.8,1.5l.6,1.8c.1.7.3,1.2.4,1.7L144,29.1Zm-12.3-7.3h11.2l-2-13-9.2,12.4Z" fill="#ffffff"/></svg>